# xmcd
# 
# Track frame offsets:
#     150
#     13297
#     33155
#     60920
#     82997
#     95887
#     116490
#     133027
#     145782
#     164245
#     186602
#     207160
#     226717
#     248447
#     260350
#     277777
#     300480
# 
# Disc length: 4187
# 
# Revision: 1
# Processed by: cddbd v1.5.2PL0 Copyright (c) Steve Scherf et al.
# Submitted via: fre:ac v1.0.17
# 
DISCID=e2105911
DTITLE=Gary Moore - The Best of the Blues CD1
DYEAR=2002
DGENRE=Blues
TTITLE0=Walking By Myself
TTITLE1=Oh Pretty Woman (feat Albert King)
TTITLE2=Still Got The Blues (full)
TTITLE3=Separate Ways
TTITLE4=Since I Met You Baby (feat BB King)
TTITLE5=Story Of The Blues (single edit)
TTITLE6=All Your Love
TTITLE7=Too Tired (feat Albert Collins)
TTITLE8=Need Your Love So Bad (single edit)
TTITLE9=Midnight Blues
TTITLE10=King Of The Blues
TTITLE11=Jumpin' At Shadows
TTITLE12=Texas Strut
TTITLE13=Moving On
TTITLE14=Stop Messin' Around
TTITLE15=Parisienne Walkways-'93
TTITLE16=The Supernatural
EXTD=
EXTT0=
EXTT1=
EXTT2=
EXTT3=
EXTT4=
EXTT5=
EXTT6=
EXTT7=
EXTT8=
EXTT9=
EXTT10=
EXTT11=
EXTT12=
EXTT13=
EXTT14=
EXTT15=
EXTT16=
PLAYORDER=
